<svg width="21" height="20" viewBox="0 0 21 20" fill="none" xmlns="http://www.w3.org/2000/svg">
<path fill-rule="evenodd" clip-rule="evenodd" d="M16.3929 3.05603C15.862 3.1502 15.1629 3.38103 14.1429 3.72187L10.8095 4.8327C10.2454 5.02103 9.87287 5.14603 9.59787 5.27437C9.33787 5.39437 9.22537 5.49187 9.1537 5.59187C9.08204 5.69187 9.02454 5.82937 8.99203 6.11437C8.9587 6.41437 8.95704 6.80853 8.95704 7.4027V9.1327L17.707 6.21603C17.707 5.18103 17.7037 4.46603 17.627 3.9452C17.5512 3.42603 17.4204 3.23937 17.2745 3.13353C17.1287 3.02853 16.9095 2.96353 16.3929 3.05603ZM18.9487 5.0002C18.9387 4.52937 18.9154 4.11687 18.8637 3.76437C18.767 3.10353 18.5512 2.51353 18.0054 2.11937C17.4595 1.72603 16.8312 1.70853 16.1737 1.8252C15.542 1.9377 14.7554 2.2002 13.7954 2.5202L10.3804 3.6577C9.8587 3.8327 9.41787 3.97937 9.0712 4.14103C8.70204 4.31187 8.38204 4.52437 8.13953 4.86103C7.89704 5.1977 7.7962 5.56853 7.75037 5.9727C7.72659 6.20336 7.71352 6.435 7.7112 6.66687H7.70704V13.3327C7.14386 12.9103 6.45457 12.6905 5.75084 12.7088C5.04711 12.727 4.37017 12.9824 3.8297 13.4335C3.28923 13.8845 2.91689 14.5049 2.773 15.194C2.62912 15.8831 2.72213 16.6006 3.03695 17.2302C3.35177 17.8599 3.86997 18.3648 4.50759 18.6632C5.1452 18.9615 5.86488 19.0358 6.55001 18.8741C7.23515 18.7124 7.8456 18.324 8.28247 17.772C8.71934 17.22 8.95704 16.5367 8.95704 15.8327V10.4502L17.707 7.53353V11.6669C17.1439 11.2445 16.4546 11.0246 15.7508 11.0429C15.0471 11.0612 14.3702 11.3166 13.8297 11.7676C13.2892 12.2187 12.9169 12.839 12.773 13.5282C12.6291 14.2173 12.7221 14.9348 13.037 15.5644C13.3518 16.1941 13.87 16.699 14.5076 16.9973C15.1452 17.2957 15.8649 17.37 16.55 17.2083C17.2351 17.0465 17.8456 16.6582 18.2825 16.1062C18.7193 15.5542 18.957 14.8708 18.957 14.1669V5.0002H18.9487ZM17.707 14.1669C17.707 13.6696 17.5095 13.1927 17.1579 12.841C16.8062 12.4894 16.3293 12.2919 15.832 12.2919C15.3348 12.2919 14.8578 12.4894 14.5062 12.841C14.1546 13.1927 13.957 13.6696 13.957 14.1669C13.957 14.6641 14.1546 15.1411 14.5062 15.4927C14.8578 15.8443 15.3348 16.0419 15.832 16.0419C16.3293 16.0419 16.8062 15.8443 17.1579 15.4927C17.5095 15.1411 17.707 14.6641 17.707 14.1669ZM7.70704 15.8335C7.70704 15.3363 7.50949 14.8593 7.15786 14.5077C6.80623 14.1561 6.32932 13.9585 5.83204 13.9585C5.33475 13.9585 4.85784 14.1561 4.50621 14.5077C4.15458 14.8593 3.95703 15.3363 3.95703 15.8335C3.95703 16.3308 4.15458 16.8077 4.50621 17.1594C4.85784 17.511 5.33475 17.7085 5.83204 17.7085C6.32932 17.7085 6.80623 17.511 7.15786 17.1594C7.50949 16.8077 7.70704 16.3308 7.70704 15.8335Z" fill="white"/>
</svg>
