<svg width="21" height="20" viewBox="0 0 21 20" fill="none" xmlns="http://www.w3.org/2000/svg">
<path fill-rule="evenodd" clip-rule="evenodd" d="M3.3212 3.58067C3.29703 3.87234 3.29203 4.21484 3.29036 4.619C2.8462 4.74984 2.45536 4.9565 2.12203 5.28984C1.62036 5.7915 1.40536 6.42317 1.30453 7.17317C1.20703 7.89567 1.20703 8.81484 1.20703 9.954V10.0457C1.20703 11.1848 1.20703 12.104 1.30453 12.8265C1.40453 13.5765 1.6212 14.2082 2.12203 14.7098C2.45536 15.0432 2.8462 15.2498 3.29036 15.3807C3.29203 15.7848 3.29703 16.1282 3.3212 16.419C3.35203 16.8048 3.41953 17.154 3.58536 17.4798C3.845 17.9893 4.25922 18.4035 4.7687 18.6632C5.09453 18.829 5.4437 18.8965 5.82953 18.9273C6.20286 18.9582 6.6612 18.9582 7.22286 18.9582H13.1079C13.6695 18.9582 14.1287 18.9582 14.5012 18.9273C14.887 18.8965 15.2362 18.829 15.562 18.6632C16.0715 18.4035 16.4857 17.9893 16.7454 17.4798C16.9112 17.154 16.9787 16.8048 17.0095 16.419C17.0337 16.1273 17.0387 15.7848 17.0404 15.3807C17.4845 15.2498 17.8754 15.0432 18.2087 14.7098C18.7104 14.2082 18.9254 13.5765 19.027 12.8265C19.1237 12.104 19.1237 11.1848 19.1237 10.0457V9.954C19.1237 8.81484 19.1237 7.89567 19.027 7.17317C18.9254 6.42317 18.7104 5.7915 18.2087 5.28984C17.8754 4.9565 17.4845 4.74984 17.0404 4.619C17.0431 4.27263 17.0329 3.92627 17.0095 3.58067C16.9787 3.19484 16.9112 2.84567 16.7454 2.52067C16.4857 2.0112 16.0715 1.59697 15.562 1.33734C15.2362 1.17067 14.887 1.104 14.5012 1.07234C14.1287 1.0415 13.6695 1.0415 13.1079 1.0415H7.2237C6.66203 1.0415 6.20286 1.0415 5.83036 1.07234C5.44453 1.10317 5.09536 1.17067 4.77036 1.3365C4.26089 1.59614 3.84667 2.01036 3.58703 2.51984C3.42036 2.84567 3.3537 3.19484 3.32203 3.58067H3.3212ZM14.3987 2.31817C14.082 2.29234 13.6745 2.2915 13.0812 2.2915H7.24786C6.65453 2.2915 6.2462 2.2915 5.9312 2.31817C5.62203 2.34317 5.4562 2.389 5.3362 2.45067C5.0617 2.5905 4.83853 2.81367 4.6987 3.08817C4.63703 3.20817 4.59036 3.374 4.56536 3.68234C4.5487 3.88234 4.54286 4.12067 4.54036 4.419C5.1662 4.37484 5.9112 4.37484 6.78536 4.37484H13.5437C14.4187 4.37484 15.1629 4.37484 15.7879 4.419C15.7883 4.17323 15.78 3.92752 15.7629 3.68234C15.7379 3.374 15.692 3.20734 15.6304 3.08817C15.4905 2.81367 15.2674 2.5905 14.9929 2.45067C14.8729 2.389 14.707 2.34234 14.3987 2.31734V2.31817ZM15.7879 15.5807C15.1629 15.6248 14.4179 15.6248 13.5437 15.6248H6.78536C5.91036 15.6248 5.1662 15.6248 4.5412 15.5807C4.54286 15.879 4.54953 16.1165 4.5662 16.3173C4.5912 16.6257 4.63703 16.7923 4.6987 16.9115C4.8387 17.1865 5.0612 17.4098 5.3362 17.549C5.4562 17.6107 5.62203 17.6573 5.93037 17.6823C6.24703 17.7073 6.65453 17.7082 7.24786 17.7082H13.0812C13.6745 17.7082 14.0829 17.7082 14.3979 17.6815C14.707 17.6565 14.8729 17.6107 14.9937 17.549C15.2679 17.409 15.4908 17.1859 15.6304 16.9115C15.692 16.7915 15.7387 16.6257 15.7637 16.3173C15.7804 16.1173 15.7845 15.879 15.7879 15.5807ZM16.1579 5.71067C15.5279 5.6265 14.6937 5.62484 13.4979 5.62484H6.83203C5.6362 5.62484 4.8012 5.6265 4.17203 5.71067C3.56036 5.79317 3.23703 5.944 3.0062 6.174C2.77536 6.40484 2.62536 6.72817 2.54286 7.34067C2.4587 7.969 2.45703 8.804 2.45703 9.99984C2.45703 11.1957 2.4587 12.0307 2.54286 12.6598C2.62536 13.2715 2.7762 13.5948 3.0062 13.8257C3.23703 14.0565 3.56036 14.2065 4.17286 14.289C4.8012 14.3732 5.6362 14.3748 6.83203 14.3748H13.4987C14.6945 14.3748 15.5287 14.3732 16.1587 14.289C16.7704 14.2065 17.0937 14.0557 17.3245 13.8257C17.5554 13.5948 17.7054 13.2715 17.7879 12.659C17.872 12.0298 17.8737 11.1957 17.8737 9.99984C17.8737 8.804 17.872 7.969 17.7879 7.33984C17.7054 6.72817 17.5545 6.40484 17.3245 6.174C17.0937 5.94317 16.7704 5.79317 16.1579 5.71067Z" fill="white"/>
</svg>
