<svg width="28" height="28" viewBox="0 0 28 28" fill="none" xmlns="http://www.w3.org/2000/svg">
<path d="M13.9994 8.16667C14.4608 8.16667 14.912 8.02982 15.2957 7.77343C15.6794 7.51704 15.9785 7.15262 16.1551 6.72626C16.3317 6.2999 16.3779 5.83075 16.2878 5.37812C16.1978 4.9255 15.9756 4.50974 15.6493 4.18342C15.3229 3.8571 14.9072 3.63487 14.4546 3.54484C14.0019 3.4548 13.5328 3.50101 13.1064 3.67762C12.6801 3.85422 12.3156 4.15329 12.0593 4.537C11.8029 4.92072 11.666 5.37184 11.666 5.83333C11.666 6.45217 11.9118 7.04567 12.3494 7.48325C12.787 7.92084 13.3805 8.16667 13.9994 8.16667ZM13.9994 19.8333C13.5379 19.8333 13.0867 19.9702 12.703 20.2266C12.3193 20.483 12.0202 20.8474 11.8436 21.2737C11.667 21.7001 11.6208 22.1693 11.7109 22.6219C11.8009 23.0745 12.0231 23.4903 12.3494 23.8166C12.6758 24.1429 13.0915 24.3651 13.5441 24.4552C13.9968 24.5452 14.4659 24.499 14.8923 24.3224C15.3186 24.1458 15.6831 23.8467 15.9394 23.463C16.1958 23.0793 16.3327 22.6282 16.3327 22.1667C16.3327 21.5478 16.0869 20.9543 15.6493 20.5168C15.2117 20.0792 14.6182 19.8333 13.9994 19.8333ZM13.9994 11.6667C13.5379 11.6667 13.0867 11.8035 12.703 12.0599C12.3193 12.3163 12.0202 12.6807 11.8436 13.1071C11.667 13.5334 11.6208 14.0026 11.7109 14.4552C11.8009 14.9078 12.0231 15.3236 12.3494 15.6499C12.6758 15.9762 13.0915 16.1985 13.5441 16.2885C13.9968 16.3785 14.4659 16.3323 14.8923 16.1557C15.3186 15.9791 15.6831 15.68 15.9394 15.2963C16.1958 14.9126 16.3327 14.4615 16.3327 14C16.3327 13.3812 16.0869 12.7877 15.6493 12.3501C15.2117 11.9125 14.6182 11.6667 13.9994 11.6667Z" fill="white"/>
</svg>
