<svg width="25" height="24" viewBox="0 0 25 24" fill="none" xmlns="http://www.w3.org/2000/svg">
<path fill-rule="evenodd" clip-rule="evenodd" d="M12.514 12.6188H12.546C15.474 12.6188 17.855 10.2378 17.855 7.30976C17.855 4.38176 15.474 1.99976 12.546 1.99976C9.61702 1.99976 7.23502 4.38176 7.23502 7.30676C7.22502 10.2268 9.59202 12.6098 12.514 12.6188ZM8.66302 7.30976C8.66302 5.16876 10.405 3.42776 12.546 3.42776C14.686 3.42776 16.427 5.16876 16.427 7.30976C16.427 9.44976 14.686 11.1918 12.546 11.1918H12.517C10.385 11.1838 8.65602 9.44376 8.66302 7.30976Z" fill="#9E9E9E"/>
<path fill-rule="evenodd" clip-rule="evenodd" d="M4.625 18.1731C4.625 21.8701 10.587 21.8701 12.546 21.8701C15.945 21.8701 20.465 21.4891 20.465 18.1931C20.465 14.4961 14.505 14.4961 12.546 14.4961C9.146 14.4961 4.625 14.8771 4.625 18.1731ZM6.125 18.1731C6.125 16.7281 8.285 15.9961 12.546 15.9961C16.806 15.9961 18.965 16.7351 18.965 18.1931C18.965 19.6381 16.806 20.3701 12.546 20.3701C8.285 20.3701 6.125 19.6311 6.125 18.1731Z" fill="#9E9E9E"/>
</svg>
