<svg width="21" height="20" viewBox="0 0 21 20" fill="none" xmlns="http://www.w3.org/2000/svg">
<path d="M15.9781 0.871392C15.8621 0.75319 15.7237 0.659391 15.5709 0.595524C15.4182 0.531657 15.2542 0.499013 15.0886 0.499517H15.0879C14.9221 0.499129 14.758 0.531946 14.6052 0.59603C14.4523 0.660115 14.3138 0.754169 14.1979 0.872642L3.81969 11.4153C3.58912 11.6508 3.46058 11.9676 3.46187 12.2971C3.46316 12.6267 3.5942 12.9424 3.8266 13.1761L4.40082 13.7503L1.02539 17.165V18.6718H5.19727L7.25977 16.6093L7.74723 17.0968C7.86579 17.2153 8.007 17.3089 8.16244 17.3717C8.31788 17.4346 8.48439 17.4655 8.65204 17.4627C8.81969 17.4599 8.98507 17.4234 9.13832 17.3554C9.29157 17.2873 9.42957 17.1892 9.5441 17.0667L19.6314 6.27999C19.8527 6.04455 19.974 5.73237 19.9696 5.40925C19.9652 5.08614 19.8356 4.77735 19.6079 4.54799L15.9781 0.871392ZM4.67961 17.4218H2.5293L4.34773 15.5819L5.43367 16.6679L4.67961 17.4218ZM8.63117 16.213L7.25977 14.8416L6.31731 15.784L5.22621 14.693L6.16316 13.7449L4.71039 12.2923L6.59859 10.3741L10.4707 14.246L8.63117 16.213ZM11.3248 13.3325L7.47559 9.48327L15.0886 1.74956L18.7184 5.42616L11.3248 13.3325Z" fill="white"/>
</svg>
