<svg width="21" height="20" viewBox="0 0 21 20" fill="none" xmlns="http://www.w3.org/2000/svg">
<path fill-rule="evenodd" clip-rule="evenodd" d="M19.627 11.6291H2.12695C1.78195 11.6291 1.50195 11.3491 1.50195 11.0041C1.50195 10.6591 1.78195 10.3791 2.12695 10.3791H19.627C19.972 10.3791 20.252 10.6591 20.252 11.0041C20.252 11.3491 19.972 11.6291 19.627 11.6291Z" fill="#D8D8D8"/>
<path fill-rule="evenodd" clip-rule="evenodd" d="M14.9573 18.1338H13.9531C13.6081 18.1338 13.3281 17.8538 13.3281 17.5088C13.3281 17.1638 13.6081 16.8838 13.9531 16.8838H14.9573C16.3281 16.8838 17.4431 15.7688 17.4431 14.3988V11.003C17.4431 10.658 17.7231 10.378 18.0681 10.378C18.4131 10.378 18.6931 10.658 18.6931 11.003V14.3988C18.6931 16.458 17.0173 18.1338 14.9573 18.1338Z" fill="#D8D8D8"/>
<path fill-rule="evenodd" clip-rule="evenodd" d="M7.82638 18.1338H6.79638C4.73638 18.1338 3.06055 16.458 3.06055 14.3988V11.003C3.06055 10.658 3.34055 10.378 3.68555 10.378C4.03055 10.378 4.31055 10.658 4.31055 11.003V14.3988C4.31055 15.7688 5.42555 16.8838 6.79638 16.8838H7.82638C8.17138 16.8838 8.45138 17.1638 8.45138 17.5088C8.45138 17.8538 8.17138 18.1338 7.82638 18.1338Z" fill="#D8D8D8"/>
<path fill-rule="evenodd" clip-rule="evenodd" d="M18.0681 8.12083C17.7231 8.12083 17.4431 7.84083 17.4431 7.49583V6.23417C17.4431 4.865 16.3281 3.75 14.9573 3.75H13.9531C13.6081 3.75 13.3281 3.47 13.3281 3.125C13.3281 2.78 13.6081 2.5 13.9531 2.5H14.9573C17.0173 2.5 18.6931 4.17583 18.6931 6.23417V7.49583C18.6931 7.84083 18.4131 8.12083 18.0681 8.12083Z" fill="#D8D8D8"/>
<path fill-rule="evenodd" clip-rule="evenodd" d="M3.68555 8.12083C3.34055 8.12083 3.06055 7.84083 3.06055 7.49583V6.23417C3.06055 4.17583 4.73638 2.5 6.79638 2.5H7.82638C8.17138 2.5 8.45138 2.78 8.45138 3.125C8.45138 3.47 8.17138 3.75 7.82638 3.75H6.79638C5.42555 3.75 4.31055 4.865 4.31055 6.23417V7.49583C4.31055 7.84083 4.03055 8.12083 3.68555 8.12083Z" fill="#D8D8D8"/>
</svg>
