<svg width="24" height="24" viewBox="0 0 24 24" fill="none" xmlns="http://www.w3.org/2000/svg">
<path fill-rule="evenodd" clip-rule="evenodd" d="M16.0585 11.1918L17.2857 9.55689C17.8937 8.74689 18.1497 7.7489 18.0067 6.74589C17.8637 5.74289 17.3397 4.85689 16.5297 4.24889C14.8587 2.99489 12.4767 3.33189 11.2217 5.00489L4.46968 13.9999C2.45768 16.6829 4.24768 19.8789 4.32468 20.0139C4.42868 20.1949 4.60368 20.3239 4.80768 20.3709C4.86568 20.3849 5.42568 20.5089 6.20668 20.5089C7.46968 20.5089 9.30768 20.1859 10.5337 18.5519L15.9023 11.3999C15.9335 11.3705 15.9626 11.3381 15.9892 11.3027C16.0159 11.2672 16.039 11.2301 16.0585 11.1918ZM5.47768 18.9619C6.25868 19.0569 8.22868 19.1239 9.33368 17.6509L14.3298 10.9951L10.6651 8.24362L5.66868 14.8999C4.54168 16.4039 5.16168 18.2449 5.47768 18.9619ZM11.5652 7.04449L15.2305 9.79514L16.0857 8.65589C16.8447 7.6459 16.6397 6.20689 15.6297 5.44789C14.6187 4.69089 13.1787 4.8959 12.4207 5.90489L11.5652 7.04449Z" fill="white"/>
<path d="M19.7334 20.2471H13.3564C12.9424 20.2471 12.6064 19.9111 12.6064 19.4971C12.6064 19.0831 12.9424 18.7471 13.3564 18.7471H19.7334C20.1474 18.7471 20.4834 19.0831 20.4834 19.4971C20.4834 19.9111 20.1474 20.2471 19.7334 20.2471Z" fill="white"/>
</svg>
