<svg width="20" height="20" viewBox="0 0 20 20" fill="none" xmlns="http://www.w3.org/2000/svg">
<g opacity="0.6">
<path fill-rule="evenodd" clip-rule="evenodd" d="M12.4624 3.66672C12.4624 3.50005 12.4707 3.33338 12.4957 3.17505H1.8457V18.35H17.0207V7.23338C16.7457 7.30838 16.4457 7.34172 16.1457 7.34172C14.1124 7.34172 12.4624 5.69172 12.4624 3.66672Z" fill="white"/>
<path d="M8.19557 10.55L10.8622 12.6417L13.9206 8.70002L12.9289 7.93335L10.6456 10.8833L7.97891 8.78335L4.87891 12.8167L5.86224 13.5833L8.19557 10.55Z" fill="#212121"/>
<path fill-rule="evenodd" clip-rule="evenodd" d="M16.1456 1.64996C15.2039 1.64996 14.4122 2.29996 14.1956 3.17496C14.1539 3.3333 14.1289 3.49996 14.1289 3.66663C14.1289 4.77496 15.0372 5.67496 16.1456 5.67496C16.4539 5.67496 16.7539 5.59996 17.0206 5.47496C17.6872 5.14996 18.1539 4.4583 18.1539 3.66663C18.1539 2.54996 17.2539 1.64996 16.1456 1.64996Z" fill="#212121"/>
</g>
</svg>
