<svg width="21" height="20" viewBox="0 0 21 20" fill="none" xmlns="http://www.w3.org/2000/svg">
<rect x="0.833984" y="0.5" width="19" height="19" stroke="white"/>
<path fill-rule="evenodd" clip-rule="evenodd" d="M3.48917 3.58085C3.465 3.87252 3.46 4.21502 3.45833 4.61919C3.01417 4.75002 2.62333 4.95669 2.29 5.29002C1.78833 5.79169 1.57333 6.42335 1.4725 7.17335C1.375 7.89585 1.375 8.81502 1.375 9.95419V10.0459C1.375 11.185 1.375 12.1042 1.4725 12.8267C1.5725 13.5767 1.78917 14.2084 2.29 14.71C2.62333 15.0434 3.01417 15.25 3.45833 15.3809C3.46 15.785 3.465 16.1284 3.48917 16.4192C3.52 16.805 3.5875 17.1542 3.75333 17.48C4.01297 17.9895 4.42719 18.4037 4.93667 18.6634C5.2625 18.8292 5.61167 18.8967 5.9975 18.9275C6.37083 18.9584 6.82917 18.9584 7.39083 18.9584H13.2758C13.8375 18.9584 14.2967 18.9584 14.6692 18.9275C15.055 18.8967 15.4042 18.8292 15.73 18.6634C16.2395 18.4037 16.6537 17.9895 16.9133 17.48C17.0792 17.1542 17.1467 16.805 17.1775 16.4192C17.2017 16.1275 17.2067 15.785 17.2083 15.3809C17.6525 15.25 18.0433 15.0434 18.3767 14.71C18.8783 14.2084 19.0933 13.5767 19.195 12.8267C19.2917 12.1042 19.2917 11.185 19.2917 10.0459V9.95419C19.2917 8.81502 19.2917 7.89585 19.195 7.17335C19.0933 6.42335 18.8783 5.79169 18.3767 5.29002C18.0433 4.95669 17.6525 4.75002 17.2083 4.61919C17.2111 4.27281 17.2008 3.92645 17.1775 3.58085C17.1467 3.19502 17.0792 2.84585 16.9133 2.52085C16.6537 2.01138 16.2395 1.59715 15.73 1.33752C15.4042 1.17085 15.055 1.10419 14.6692 1.07252C14.2967 1.04169 13.8375 1.04169 13.2758 1.04169H7.39167C6.83 1.04169 6.37083 1.04169 5.99833 1.07252C5.6125 1.10335 5.26333 1.17085 4.93833 1.33669C4.42886 1.59632 4.01463 2.01055 3.755 2.52002C3.58833 2.84585 3.52167 3.19502 3.49 3.58085H3.48917ZM14.5667 2.31835C14.25 2.29252 13.8425 2.29169 13.2492 2.29169H7.41583C6.8225 2.29169 6.41417 2.29169 6.09917 2.31835C5.79 2.34335 5.62417 2.38919 5.50417 2.45085C5.22967 2.59069 5.0065 2.81385 4.86667 3.08835C4.805 3.20835 4.75833 3.37419 4.73333 3.68252C4.71667 3.88252 4.71083 4.12085 4.70833 4.41919C5.33417 4.37502 6.07917 4.37502 6.95333 4.37502H13.7117C14.5867 4.37502 15.3308 4.37502 15.9558 4.41919C15.9563 4.17341 15.9479 3.9277 15.9308 3.68252C15.9058 3.37419 15.86 3.20752 15.7983 3.08835C15.6585 2.81385 15.4353 2.59069 15.1608 2.45085C15.0408 2.38919 14.875 2.34252 14.5667 2.31752V2.31835ZM15.9558 15.5809C15.3308 15.625 14.5858 15.625 13.7117 15.625H6.95333C6.07833 15.625 5.33417 15.625 4.70917 15.5809C4.71083 15.8792 4.7175 16.1167 4.73417 16.3175C4.75917 16.6259 4.805 16.7925 4.86667 16.9117C5.00667 17.1867 5.22917 17.41 5.50417 17.5492C5.62417 17.6109 5.79 17.6575 6.09833 17.6825C6.415 17.7075 6.8225 17.7084 7.41583 17.7084H13.2492C13.8425 17.7084 14.2508 17.7084 14.5658 17.6817C14.875 17.6567 15.0408 17.6109 15.1617 17.5492C15.4359 17.4092 15.6587 17.1861 15.7983 16.9117C15.86 16.7917 15.9067 16.6259 15.9317 16.3175C15.9483 16.1175 15.9525 15.8792 15.9558 15.5809ZM16.3258 5.71085C15.6958 5.62669 14.8617 5.62502 13.6658 5.62502H7C5.80417 5.62502 4.96917 5.62669 4.34 5.71085C3.72833 5.79335 3.405 5.94419 3.17417 6.17419C2.94333 6.40502 2.79333 6.72835 2.71083 7.34085C2.62667 7.96919 2.625 8.80419 2.625 10C2.625 11.1959 2.62667 12.0309 2.71083 12.66C2.79333 13.2717 2.94417 13.595 3.17417 13.8259C3.405 14.0567 3.72833 14.2067 4.34083 14.2892C4.96917 14.3734 5.80417 14.375 7 14.375H13.6667C14.8625 14.375 15.6967 14.3734 16.3267 14.2892C16.9383 14.2067 17.2617 14.0559 17.4925 13.8259C17.7233 13.595 17.8733 13.2717 17.9558 12.6592C18.04 12.03 18.0417 11.1959 18.0417 10C18.0417 8.80419 18.04 7.96919 17.9558 7.34002C17.8733 6.72835 17.7225 6.40502 17.4925 6.17419C17.2617 5.94335 16.9383 5.79335 16.3258 5.71085Z" fill="white"/>
</svg>
