<svg width="28" height="28" viewBox="0 0 28 28" fill="none" xmlns="http://www.w3.org/2000/svg">
<path d="M15.6459 13.9999L20.6626 8.99489C20.8823 8.7752 21.0057 8.47724 21.0057 8.16656C21.0057 7.85587 20.8823 7.55791 20.6626 7.33822C20.4429 7.11854 20.1449 6.99512 19.8342 6.99512C19.5236 6.99512 19.2256 7.11854 19.0059 7.33822L14.0009 12.3549L8.99591 7.33822C8.77622 7.11854 8.47826 6.99512 8.16757 6.99512C7.85689 6.99512 7.55893 7.11854 7.33924 7.33822C7.11955 7.55791 6.99613 7.85587 6.99613 8.16656C6.99613 8.47724 7.11955 8.7752 7.33924 8.99489L12.3559 13.9999L7.33924 19.0049C7.22989 19.1133 7.1431 19.2424 7.08387 19.3846C7.02464 19.5267 6.99414 19.6792 6.99414 19.8332C6.99414 19.9872 7.02464 20.1397 7.08387 20.2819C7.1431 20.4241 7.22989 20.5531 7.33924 20.6616C7.4477 20.7709 7.57673 20.8577 7.7189 20.9169C7.86107 20.9762 8.01356 21.0067 8.16757 21.0067C8.32159 21.0067 8.47408 20.9762 8.61625 20.9169C8.75841 20.8577 8.88745 20.7709 8.99591 20.6616L14.0009 15.6449L19.0059 20.6616C19.1144 20.7709 19.2434 20.8577 19.3856 20.9169C19.5277 20.9762 19.6802 21.0067 19.8342 21.0067C19.9883 21.0067 20.1407 20.9762 20.2829 20.9169C20.4251 20.8577 20.5541 20.7709 20.6626 20.6616C20.7719 20.5531 20.8587 20.4241 20.9179 20.2819C20.9772 20.1397 21.0077 19.9872 21.0077 19.8332C21.0077 19.6792 20.9772 19.5267 20.9179 19.3846C20.8587 19.2424 20.7719 19.1133 20.6626 19.0049L15.6459 13.9999Z" fill="white"/>
</svg>
