<svg width="16" height="17" viewBox="0 0 16 17" fill="none" xmlns="http://www.w3.org/2000/svg">
<path fill-rule="evenodd" clip-rule="evenodd" d="M3.77963 3.67315C3.7975 3.52171 3.85048 3.37654 3.93437 3.2492C4.01825 3.12186 4.13071 3.01586 4.26279 2.93966C4.39487 2.86345 4.54292 2.81914 4.69515 2.81026C4.84738 2.80137 4.99958 2.82816 5.13963 2.88848C5.84763 3.19115 7.43429 3.91048 9.44763 5.07248C11.4616 6.23515 12.8783 7.25048 13.4936 7.71115C14.019 8.10515 14.0203 8.88648 13.4943 9.28182C12.885 9.73982 11.4856 10.7418 9.44763 11.9191C7.40762 13.0965 5.83963 13.8071 5.13829 14.1058C4.53429 14.3638 3.85829 13.9725 3.77963 13.3211C3.68763 12.5598 3.51562 10.8311 3.51562 8.49648C3.51562 6.16315 3.68696 4.43515 3.77963 3.67315Z" fill="white"/>
</svg>
