<svg width="21" height="20" viewBox="0 0 21 20" fill="none" xmlns="http://www.w3.org/2000/svg">
<path fill-rule="evenodd" clip-rule="evenodd" d="M10.7402 10.5157H10.7669C13.2069 10.5157 15.191 8.5315 15.191 6.0915C15.191 3.6515 13.2069 1.6665 10.7669 1.6665C8.32603 1.6665 6.34103 3.6515 6.34103 6.089C6.3327 8.52234 8.3052 10.5082 10.7402 10.5157ZM7.53103 6.0915C7.53103 4.30734 8.9827 2.8565 10.7669 2.8565C12.5502 2.8565 14.001 4.30734 14.001 6.0915C14.001 7.87484 12.5502 9.3265 10.7669 9.3265H10.7427C8.96603 9.31984 7.5252 7.86984 7.53103 6.0915Z" fill="white"/>
<path fill-rule="evenodd" clip-rule="evenodd" d="M4.16602 15.1443C4.16602 18.2251 9.13435 18.2251 10.7668 18.2251C13.5993 18.2251 17.366 17.9076 17.366 15.161C17.366 12.0801 12.3993 12.0801 10.7668 12.0801C7.93352 12.0801 4.16602 12.3976 4.16602 15.1443ZM5.41602 15.1443C5.41602 13.9401 7.21602 13.3301 10.7668 13.3301C14.3168 13.3301 16.116 13.946 16.116 15.161C16.116 16.3651 14.3168 16.9751 10.7668 16.9751C7.21602 16.9751 5.41602 16.3593 5.41602 15.1443Z" fill="white"/>
</svg>
