<svg width="21" height="20" viewBox="0 0 21 20" fill="none" xmlns="http://www.w3.org/2000/svg">
<path fill-rule="evenodd" clip-rule="evenodd" d="M16.3108 3.05585C15.78 3.15002 15.0808 3.38085 14.0608 3.72168L10.7275 4.83252C10.1633 5.02085 9.79084 5.14585 9.51584 5.27418C9.25584 5.39418 9.14334 5.49168 9.07167 5.59168C9 5.69168 8.9425 5.82918 8.91 6.11418C8.87667 6.41418 8.875 6.80835 8.875 7.40252V9.13252L17.625 6.21585C17.625 5.18085 17.6217 4.46585 17.545 3.94502C17.4692 3.42585 17.3383 3.23918 17.1925 3.13335C17.0467 3.02835 16.8275 2.96335 16.3108 3.05585ZM18.8667 5.00002C18.8567 4.52918 18.8333 4.11668 18.7817 3.76418C18.685 3.10335 18.4692 2.51335 17.9233 2.11918C17.3775 1.72585 16.7492 1.70835 16.0917 1.82502C15.46 1.93752 14.6733 2.20002 13.7133 2.52002L10.2983 3.65752C9.77667 3.83252 9.33584 3.97918 8.98917 4.14085C8.62 4.31168 8.3 4.52418 8.0575 4.86085C7.815 5.19752 7.71417 5.56835 7.66834 5.97252C7.64455 6.20318 7.63148 6.43481 7.62917 6.66668H7.625V13.3325C7.06183 12.9101 6.37254 12.6903 5.66881 12.7086C4.96508 12.7269 4.28814 12.9822 3.74767 13.4333C3.2072 13.8844 2.83486 14.5047 2.69097 15.1938C2.54709 15.8829 2.6401 16.6004 2.95492 17.2301C3.26974 17.8597 3.78794 18.3646 4.42556 18.663C5.06317 18.9613 5.78285 19.0357 6.46798 18.8739C7.15312 18.7122 7.76357 18.3239 8.20044 17.7718C8.63731 17.2198 8.875 16.5365 8.875 15.8325V10.45L17.625 7.53335V11.6667C17.0618 11.2443 16.3725 11.0244 15.6688 11.0427C14.9651 11.061 14.2881 11.3164 13.7477 11.7675C13.2072 12.2185 12.8349 12.8389 12.691 13.528C12.5471 14.2171 12.6401 14.9346 12.9549 15.5642C13.2697 16.1939 13.7879 16.6988 14.4256 16.9971C15.0632 17.2955 15.7828 17.3698 16.468 17.2081C17.1531 17.0463 17.7636 16.658 18.2004 16.106C18.6373 15.554 18.875 14.8707 18.875 14.1667V5.00002H18.8667ZM17.625 14.1667C17.625 13.6694 17.4275 13.1925 17.0758 12.8409C16.7242 12.4892 16.2473 12.2917 15.75 12.2917C15.2527 12.2917 14.7758 12.4892 14.4242 12.8409C14.0725 13.1925 13.875 13.6694 13.875 14.1667C13.875 14.664 14.0725 15.1409 14.4242 15.4925C14.7758 15.8441 15.2527 16.0417 15.75 16.0417C16.2473 16.0417 16.7242 15.8441 17.0758 15.4925C17.4275 15.1409 17.625 14.664 17.625 14.1667ZM7.625 15.8334C7.625 15.3361 7.42746 14.8592 7.07583 14.5075C6.7242 14.1559 6.24728 13.9584 5.75 13.9584C5.25272 13.9584 4.77581 14.1559 4.42418 14.5075C4.07255 14.8592 3.875 15.3361 3.875 15.8334C3.875 16.3306 4.07255 16.8075 4.42418 17.1592C4.77581 17.5108 5.25272 17.7084 5.75 17.7084C6.24728 17.7084 6.7242 17.5108 7.07583 17.1592C7.42746 16.8075 7.625 16.3306 7.625 15.8334Z" fill="white"/>
</svg>
