<svg width="25" height="24" viewBox="0 0 25 24" fill="none" xmlns="http://www.w3.org/2000/svg">
<path fill-rule="evenodd" clip-rule="evenodd" d="M15.2831 16.885H9.46806C9.05406 16.885 8.71806 16.549 8.71806 16.135C8.71806 15.721 9.05406 15.385 9.46806 15.385H15.2831C15.6971 15.385 16.0331 15.721 16.0331 16.135C16.0331 16.549 15.6971 16.885 15.2831 16.885ZM19.6241 6.158C19.2611 5.838 18.8481 5.476 18.3561 5.021C18.1331 4.841 17.8891 4.635 17.6301 4.417C16.1701 3.186 14.1701 1.5 12.3471 1.5C10.5451 1.5 8.67406 3.092 7.17106 4.371C6.89306 4.607 6.63306 4.829 6.36806 5.044C5.90206 5.476 5.48906 5.839 5.12506 6.16C2.73806 8.261 2.28906 8.812 2.28906 13.713C2.28906 22.5 4.83006 22.5 12.3751 22.5C19.9191 22.5 22.4611 22.5 22.4611 13.713C22.4611 8.811 22.0121 8.26 19.6241 6.158Z" fill="#FAFAFA"/>
</svg>
