<svg width="60" height="60" viewBox="0 0 60 60" fill="none" xmlns="http://www.w3.org/2000/svg">
<path fill-rule="evenodd" clip-rule="evenodd" d="M31.1738 38.27L30.6362 39.2225H28.5363L27.9037 38.3825C27.8662 38.325 24.1488 32.77 19.3438 29.73L17.7562 28.73L19.7612 25.56L21.3438 26.56C24.8062 28.7475 27.6812 31.9425 29.3762 34.075C32.0387 30.0625 38.2737 21.705 47.8363 14.9275C43.3687 9.2725 36.4663 5.625 28.7188 5.625C15.2788 5.625 4.34375 16.56 4.34375 30C4.34375 43.44 15.2788 54.375 28.7188 54.375C42.1587 54.375 53.0938 43.44 53.0938 30C53.0938 25.6575 51.9388 21.5875 49.9412 18.0525C37.8587 26.6675 31.2463 38.1425 31.1738 38.27Z" fill="#12D18E"/>
</svg>
