<svg width="21" height="20" viewBox="0 0 21 20" fill="none" xmlns="http://www.w3.org/2000/svg">
<path d="M4.34999 5.9375C4.34999 4.6943 4.84385 3.50201 5.72293 2.62294C6.602 1.74386 7.79429 1.25 9.03749 1.25C10.2807 1.25 11.473 1.74386 12.3521 2.62294C13.2311 3.50201 13.725 4.6943 13.725 5.9375C13.725 6.10326 13.6591 6.26223 13.5419 6.37944C13.4247 6.49665 13.2658 6.5625 13.1 6.5625C12.9342 6.5625 12.7753 6.49665 12.658 6.37944C12.5408 6.26223 12.475 6.10326 12.475 5.9375C12.475 5.02582 12.1128 4.15148 11.4682 3.50682C10.8235 2.86216 9.94917 2.5 9.03749 2.5C8.12581 2.5 7.25147 2.86216 6.60681 3.50682C5.96215 4.15148 5.59999 5.02582 5.59999 5.9375C5.59999 6.10326 5.53414 6.26223 5.41693 6.37944C5.29972 6.49665 5.14075 6.5625 4.97499 6.5625C4.80923 6.5625 4.65026 6.49665 4.53305 6.37944C4.41584 6.26223 4.34999 6.10326 4.34999 5.9375ZM15.2875 9.375C14.9229 9.3746 14.564 9.46566 14.2437 9.63984C14.148 9.34367 13.9902 9.07133 13.7808 8.84102C13.5715 8.61071 13.3154 8.42773 13.0296 8.30431C12.7439 8.18089 12.4351 8.11987 12.1239 8.12532C11.8127 8.13078 11.5062 8.20258 11.225 8.33594V5.9375C11.225 5.35734 10.9945 4.80094 10.5843 4.3907C10.1741 3.98047 9.61765 3.75 9.03749 3.75C8.45733 3.75 7.90093 3.98047 7.49069 4.3907C7.08046 4.80094 6.84999 5.35734 6.84999 5.9375V12.1875L6.55155 11.7086C6.25971 11.2071 5.78059 10.842 5.21959 10.6937C4.6586 10.5455 4.06168 10.6261 3.56015 10.918C3.05862 11.2098 2.69356 11.6889 2.54529 12.2499C2.39702 12.8109 2.47768 13.4078 2.76952 13.9094L5.06015 17.8156C5.09856 17.8917 5.15214 17.9591 5.21757 18.0137C5.283 18.0683 5.35891 18.109 5.44063 18.1332C5.52236 18.1574 5.60817 18.1646 5.69278 18.1544C5.7774 18.1442 5.85904 18.1168 5.93268 18.0739C6.00632 18.031 6.07041 17.9735 6.12101 17.9049C6.1716 17.8364 6.20764 17.7581 6.22689 17.6751C6.24615 17.5921 6.24822 17.506 6.23298 17.4221C6.21774 17.3383 6.18551 17.2584 6.13827 17.1875L3.84999 13.2813C3.78575 13.1745 3.74341 13.0561 3.72545 12.9329C3.7075 12.8096 3.71428 12.684 3.74541 12.5634C3.77653 12.4428 3.83138 12.3296 3.90674 12.2304C3.9821 12.1313 4.07647 12.0481 4.18433 11.9858C4.29219 11.9236 4.41138 11.8834 4.53494 11.8677C4.6585 11.852 4.78395 11.861 4.90396 11.8944C5.02398 11.9277 5.13615 11.9846 5.23392 12.0617C5.3317 12.1389 5.41312 12.2348 5.47343 12.3438L5.48437 12.3617L6.94374 14.7055C7.01539 14.8211 7.12281 14.9102 7.24968 14.9592C7.37656 15.0082 7.51596 15.0145 7.64675 14.9772C7.77753 14.9398 7.89255 14.8608 7.97435 14.7521C8.05615 14.6434 8.10026 14.511 8.09999 14.375V5.9375C8.09999 5.68886 8.19876 5.4504 8.37458 5.27459C8.55039 5.09877 8.78885 5 9.03749 5C9.28613 5 9.52459 5.09877 9.7004 5.27459C9.87622 5.4504 9.97499 5.68886 9.97499 5.9375V11.25C9.97499 11.4158 10.0408 11.5747 10.158 11.6919C10.2753 11.8092 10.4342 11.875 10.6 11.875C10.7658 11.875 10.9247 11.8092 11.0419 11.6919C11.1591 11.5747 11.225 11.4158 11.225 11.25V10.3125C11.225 10.0639 11.3238 9.8254 11.4996 9.64959C11.6754 9.47377 11.9139 9.375 12.1625 9.375C12.4111 9.375 12.6496 9.47377 12.8254 9.64959C13.0012 9.8254 13.1 10.0639 13.1 10.3125V11.875C13.1 12.0408 13.1658 12.1997 13.283 12.3169C13.4003 12.4342 13.5592 12.5 13.725 12.5C13.8908 12.5 14.0497 12.4342 14.1669 12.3169C14.2841 12.1997 14.35 12.0408 14.35 11.875V11.5625C14.35 11.3139 14.4488 11.0754 14.6246 10.8996C14.8004 10.7238 15.0388 10.625 15.2875 10.625C15.5361 10.625 15.7746 10.7238 15.9504 10.8996C16.1262 11.0754 16.225 11.3139 16.225 11.5625V14.375C16.225 16.0633 15.6703 17.2109 15.6656 17.2203C15.5916 17.3686 15.5794 17.5402 15.6319 17.6974C15.6843 17.8546 15.7971 17.9845 15.9453 18.0586C16.032 18.1024 16.1278 18.1252 16.225 18.125C16.3411 18.1251 16.4549 18.0928 16.5537 18.0318C16.6525 17.9708 16.7324 17.8835 16.7844 17.7797C16.8133 17.7227 17.4758 16.3734 17.4758 14.375V11.5625C17.4758 11.2752 17.4192 10.9907 17.3092 10.7252C17.1992 10.4597 17.038 10.2186 16.8348 10.0154C16.6316 9.81229 16.3903 9.65118 16.1248 9.54129C15.8594 9.4314 15.5748 9.3749 15.2875 9.375Z" fill="white"/>
</svg>
