<svg width="21" height="20" viewBox="0 0 21 20" fill="none" xmlns="http://www.w3.org/2000/svg">
<path d="M6.39184 4.80235C6.35038 4.67787 6.2708 4.5696 6.16437 4.49288C6.05795 4.41615 5.93007 4.37486 5.79887 4.37486C5.66768 4.37486 5.5398 4.41615 5.43338 4.49288C5.32695 4.5696 5.24737 4.67787 5.20591 4.80235L2.08091 14.1773C2.04959 14.2713 2.04104 14.3714 2.05598 14.4693C2.07091 14.5672 2.1089 14.6601 2.16681 14.7405C2.22472 14.8208 2.3009 14.8862 2.38906 14.9314C2.47722 14.9765 2.57484 15 2.67387 15H8.92387C9.02291 15 9.12053 14.9765 9.20869 14.9314C9.29685 14.8862 9.37303 14.8208 9.43094 14.7405C9.48885 14.6601 9.52684 14.5672 9.54177 14.4693C9.55671 14.3714 9.54816 14.2713 9.51684 14.1773L6.39184 4.80235ZM3.54106 13.75L5.79887 6.97656L8.05669 13.75H3.54106ZM17.0489 5.9375C17.0489 5.13402 16.8106 4.34857 16.3642 3.6805C15.9178 3.01242 15.2834 2.49172 14.541 2.18424C13.7987 1.87676 12.9819 1.79631 12.1938 1.95306C11.4058 2.10981 10.6819 2.49673 10.1138 3.06488C9.5456 3.63303 9.15869 4.3569 9.00193 5.14495C8.84518 5.93299 8.92563 6.74983 9.23311 7.49215C9.5406 8.23448 10.0613 8.86895 10.7294 9.31535C11.3974 9.76174 12.1829 10 12.9864 10C14.0634 9.99876 15.096 9.57035 15.8576 8.80875C16.6192 8.04716 17.0476 7.01456 17.0489 5.9375ZM10.1739 5.9375C10.1739 5.38124 10.3388 4.83747 10.6479 4.37496C10.9569 3.91245 11.3962 3.55196 11.9101 3.33909C12.424 3.12622 12.9895 3.07052 13.5351 3.17904C14.0806 3.28756 14.5818 3.55543 14.9751 3.94876C15.3684 4.3421 15.6363 4.84324 15.7448 5.38881C15.8534 5.93438 15.7977 6.49988 15.5848 7.0138C15.3719 7.52772 15.0114 7.96697 14.5489 8.27601C14.0864 8.58505 13.5426 8.75 12.9864 8.75C12.2405 8.75 11.5251 8.45369 10.9976 7.92624C10.4702 7.39879 10.1739 6.68342 10.1739 5.9375ZM18.2989 11.25H11.4239C11.2581 11.25 11.0991 11.3158 10.9819 11.4331C10.8647 11.5503 10.7989 11.7092 10.7989 11.875V16.25C10.7989 16.4158 10.8647 16.5747 10.9819 16.6919C11.0991 16.8092 11.2581 16.875 11.4239 16.875H18.2989C18.4646 16.875 18.6236 16.8092 18.7408 16.6919C18.858 16.5747 18.9239 16.4158 18.9239 16.25V11.875C18.9239 11.7092 18.858 11.5503 18.7408 11.4331C18.6236 11.3158 18.4646 11.25 18.2989 11.25ZM17.6739 15.625H12.0489V12.5H17.6739V15.625Z" fill="white"/>
</svg>
