<svg width="20" height="20" viewBox="0 0 20 20" fill="none" xmlns="http://www.w3.org/2000/svg">
<path d="M15.542 9.20829H10.792V4.45829C10.792 4.24833 10.7086 4.04697 10.5601 3.8985C10.4117 3.75003 10.2103 3.66663 10.0003 3.66663C9.79036 3.66663 9.589 3.75003 9.44053 3.8985C9.29207 4.04697 9.20866 4.24833 9.20866 4.45829V9.20829H4.45866C4.2487 9.20829 4.04733 9.2917 3.89887 9.44017C3.7504 9.58863 3.66699 9.79 3.66699 9.99996C3.66699 10.2099 3.7504 10.4113 3.89887 10.5598C4.04733 10.7082 4.2487 10.7916 4.45866 10.7916H9.20866V15.5416C9.20866 15.7516 9.29207 15.953 9.44053 16.1014C9.589 16.2499 9.79036 16.3333 10.0003 16.3333C10.2103 16.3333 10.4117 16.2499 10.5601 16.1014C10.7086 15.953 10.792 15.7516 10.792 15.5416V10.7916H15.542C15.752 10.7916 15.9533 10.7082 16.1018 10.5598C16.2503 10.4113 16.3337 10.2099 16.3337 9.99996C16.3337 9.79 16.2503 9.58863 16.1018 9.44017C15.9533 9.2917 15.752 9.20829 15.542 9.20829Z" fill="white"/>
</svg>
