<svg width="24" height="24" viewBox="0 0 24 24" fill="none" xmlns="http://www.w3.org/2000/svg">
<path fill-rule="evenodd" clip-rule="evenodd" d="M5.66944 4.76021C5.69625 4.53306 5.77573 4.3153 5.90155 4.12429C6.02737 3.93327 6.19607 3.77428 6.39419 3.65997C6.59231 3.54567 6.81438 3.4792 7.04272 3.46587C7.27107 3.45255 7.49937 3.49273 7.70944 3.58321C8.77144 4.03721 11.1514 5.11621 14.1714 6.85921C17.1924 8.60321 19.3174 10.1262 20.2404 10.8172C21.0284 11.4082 21.0304 12.5802 20.2414 13.1732C19.3274 13.8602 17.2284 15.3632 14.1714 17.1292C11.1114 18.8952 8.75944 19.9612 7.70744 20.4092C6.80144 20.7962 5.78744 20.2092 5.66944 19.2322C5.53144 18.0902 5.27344 15.4972 5.27344 11.9952C5.27344 8.49521 5.53044 5.90321 5.66944 4.76021Z" fill="#235DFF"/>
</svg>
