<svg width="28" height="28" viewBox="0 0 28 28" fill="none" xmlns="http://www.w3.org/2000/svg">
<path d="M8.26139 6.69877C6.5416 5.87743 3.75238 5.21103 0.933594 7.82037C3.89793 7.63843 5.10948 9.12743 6.95286 12.905C8.67736 17.0126 8.79264 19.4963 8.89697 23.6723C11.8981 21.2086 13.6131 18.3659 13.2712 14.4752C12.955 10.8765 9.98118 7.52011 8.26139 6.69877Z" fill="#4ECBFB"/>
<path d="M19.9256 15.1484C15.9469 22.205 13.5574 24.3573 8.89648 23.6726C10.2868 19.8662 10.9901 17.7656 12.4108 14.7371C13.8315 11.7087 15.5887 8.35939 17.7571 6.9607C19.9256 5.56201 23.2708 5.25966 27.0664 7.29718C24.0755 7.63376 22.6212 9.7858 19.9256 15.1484Z" fill="#235DFF"/>
</svg>
