{"accessors" : [{"bufferView" : 0, "byteOffset" : 0, "componentType" : 5123, "count" : 14328, "type" : "SCALAR", "max" : [3538], "min" : [0]}, {"bufferView" : 1, "byteOffset" : 0, "componentType" : 5126, "count" : 3539, "type" : "VEC3", "max" : [1.8135672807693481, 0.3440939486026764, 4.824968338012695], "min" : [-1.8135672807693481, -0.3482518196105957, -0.004814099986106157], "name" : "POSITION"}, {"bufferView" : 1, "byteOffset" : 12, "componentType" : 5126, "count" : 3539, "type" : "VEC2", "max" : [0.875, 1], "min" : [0, 0], "name" : "TEXCOORD_0"}, {"bufferView" : 1, "byteOffset" : 20, "componentType" : 5126, "count" : 3539, "type" : "VEC3", "max" : [1.0000044107437134, 0.9991238117218018, 0.9999436140060425], "min" : [-0.9999995231628418, -0.9999498128890991, -0.9998674988746643], "name" : "NORMAL"}], "asset" : {"generator" : "Aspose.3D 24.2.0", "version" : "2.0"}, "buffers" : [{"uri" : "buffer.bin", "byteLength" : 141912}], "bufferViews" : [{"buffer" : 0, "byteOffset" : 0, "byteLength" : 28656, "target" : 34963}, {"buffer" : 0, "byteOffset" : 28660, "byteLength" : 113248, "byteStride" : 32, "target" : 34962}], "meshes" : [{"primitives" : [{"attributes" : {"POSITION" : 1, "TEXCOORD_0" : 2, "NORMAL" : 3}, "indices" : 0, "mode" : 4}], "name" : ""}], "nodes" : [{"mesh" : 0, "name" : "obj1"}], "scene" : 0, "scenes" : [{"nodes" : [0]}]}