{  "asset": {    "version": "2.0",    "generator": "THREE.GLTFExporter"  },  "scenes": [    {      "name": "AuxScene",      "nodes": [        4      ]    }  ],  "scene": 0,  "nodes": [    {      "mesh": 0    },    {      "mesh": 1    },    {      "mesh": 2    },    {      "mesh": 3    },    {      "children": [        0,        1,        2,        3      ]    }  ],  "bufferViews": [    {      "buffer": 0,      "byteOffset": 0,      "byteLength": 72,      "target": 34962,      "byteStride": 12    },    {      "buffer": 0,      "byteOffset": 72,      "byteLength": 72,      "target": 34962,      "byteStride": 12    },    {      "buffer": 0,      "byteOffset": 144,      "byteLength": 11232,      "target": 34962,      "byteStride": 12    },    {      "buffer": 0,      "byteOffset": 11376,      "byteLength": 11232,      "target": 34962,      "byteStride": 12    },    {      "buffer": 0,      "byteOffset": 22608,      "byteLength": 11232,      "target": 34962,      "byteStride": 12    },    {      "buffer": 0,      "byteOffset": 33840,      "byteLength": 11232,      "target": 34962,      "byteStride": 12    },    {      "buffer": 0,      "byteOffset": 45072,      "byteLength": 117144,      "target": 34962,      "byteStride": 12    },    {      "buffer": 0,      "byteOffset": 162216,      "byteLength": 117144,      "target": 34962,      "byteStride": 12    }  ],  "buffers": [    {      "byteLength": 279360,      "uri": "data:application/octet-stream;base64,"    }  ],  "accessors": [    {      "bufferView": 0,      "componentType": 5126,      "count": 6,      "max": [        14.081912994384766,        14.081912994384766,        -29.999998092651367      ],      "min": [        -14.081912994384766,        -14.081912994384766,        -29.999998092651367      ],      "type": "VEC3"    },    {      "bufferView": 1,      "componentType": 5126,      "count": 6,      "max": [        0,        0,        1      ],      "min": [        0,        0,        1      ],      "type": "VEC3"    },    {      "bufferView": 2,      "componentType": 5126,      "count": 936,      "max": [        -0.43484950065612793,        -6.288570404052734,        26.02393913269043      ],      "min": [        -2.3400213718414307,        -7.251472473144531,        24.118881225585938      ],      "type": "VEC3"    },    {      "bufferView": 3,      "componentType": 5126,      "count": 936,      "max": [        0.9914548397064209,        -0.11972410976886749,        0.9927976131439209      ],      "min": [        -0.9914548397064209,        -0.99993896484375,        -0.9899594187736511      ],      "type": "VEC3"    },    {      "bufferView": 4,      "componentType": 5126,      "count": 936,      "max": [        2.3400213718414307,        -6.288570404052734,        26.02393913269043      ],      "min": [        0.43484950065612793,        -7.251472473144531,        24.118881225585938      ],      "type": "VEC3"    },    {      "bufferView": 5,      "componentType": 5126,      "count": 936,      "max": [        0.9914548397064209,        -0.11972410976886749,        0.9927976131439209      ],      "min": [        -0.9914548397064209,        -0.99993896484375,        -0.9899594187736511      ],      "type": "VEC3"    },    {      "bufferView": 6,      "componentType": 5126,      "count": 9762,      "max": [        10.569337844848633,        2.842986583709717,        29.999998092651367      ],      "min": [        -10.56933879852295,        -8.798842430114746,        -29.98011016845703      ],      "type": "VEC3"    },    {      "bufferView": 7,      "componentType": 5126,      "count": 9762,      "max": [        1,        0.9985961318016052,        0.9978026747703552      ],      "min": [        -1,        -1,        -1      ],      "type": "VEC3"    }  ],  "materials": [    {      "pbrMetallicRoughness": {        "metallicFactor": 0.5,        "roughnessFactor": 0.5      },      "doubleSided": true,      "name": "mat0"    }  ],  "meshes": [    {      "primitives": [        {          "mode": 4,          "attributes": {            "POSITION": 0,            "NORMAL": 1          },          "material": 0        }      ]    },    {      "primitives": [        {          "mode": 4,          "attributes": {            "POSITION": 2,            "NORMAL": 3          },          "material": 0        }      ]    },    {      "primitives": [        {          "mode": 4,          "attributes": {            "POSITION": 4,            "NORMAL": 5          },          "material": 0        }      ]    },    {      "primitives": [        {          "mode": 4,          "attributes": {            "POSITION": 6,            "NORMAL": 7          },          "material": 0        }      ]    }  ]}